<svg id="visual" viewBox="0 0 960 540" width="960" height="540" xmlns="http://www.w3.org/2000/svg" xmlns:xlink="http://www.w3.org/1999/xlink" version="1.1"><rect x="0" y="0" width="960" height="540" fill="#0066ff"></rect><path d="M0 131L32 140.7C64 150.3 128 169.7 192 172.5C256 175.3 320 161.7 384 148.5C448 135.3 512 122.7 576 113.3C640 104 704 98 768 110C832 122 896 152 928 167L960 182L960 0L928 0C896 0 832 0 768 0C704 0 640 0 576 0C512 0 448 0 384 0C320 0 256 0 192 0C128 0 64 0 32 0L0 0Z" fill="#052764" stroke-linecap="round" stroke-linejoin="miter"></path></svg>